<svg version="1.1" xmlns="http://www.w3.org/2000/svg" viewBox="0 0 1024 1024" preserveAspectRatio="xMidYMid meet" xmlns:xlink="http://www.w3.org/1999/xlink" xmlns:svgjs="http://svgjs.dev/svgjs" xmlns:svgjs="http://svgjs.dev/svgjs">

<path d="M0,0 L16,8 L39,20 L62,33 L87,46 L109,58 L133,71 L134,78 L137,154 L137,166 L131,164 L110,152 L96,145 L75,133 L63,127 L44,116 L28,108 L4,95 L-1,93 L-21,104 L-37,112 L-56,122 L-75,132 L-93,142 L-109,150 L-125,159 L-141,167 L-141,169 L-122,180 L-103,190 L-90,198 L-89,224 L-66,212 L-44,200 L-19,187 L-10,182 L-5,183 L17,195 L45,210 L67,222 L77,228 L74,231 L51,243 L32,253 L18,261 L2,269 L-32,287 L-51,297 L-75,310 L-84,315 L-84,328 L-78,463 L-80,464 L-104,451 L-125,439 L-137,433 L-159,421 L-183,408 L-198,400 L-218,389 L-219,388 L-221,357 L-223,310 L-223,294 L-212,288 L-223,281 L-224,280 L-225,268 L-225,250 L-209,258 L-187,270 L-184,272 L-179,271 L-171,267 L-171,253 L-172,247 L-190,237 L-201,231 L-227,217 L-228,199 L-228,186 L-222,188 L-204,198 L-176,213 L-153,226 L-143,232 L-143,252 L-118,239 L-116,237 L-117,215 L-138,203 L-154,194 L-165,188 L-191,174 L-209,164 L-221,157 L-230,153 L-231,139 L-231,121 L-222,116 L-197,103 L-178,93 L-159,83 L-143,75 L-115,60 L-84,44 L-65,34 L-38,20 L-15,8 Z " fill="#C88F37" transform="translate(559,288)"></path>




</svg>