<svg version="1.1" xmlns="http://www.w3.org/2000/svg" viewBox="0 0 1024 1024" preserveAspectRatio="xMidYMid meet" xmlns:xlink="http://www.w3.org/1999/xlink" xmlns:svgjs="http://svgjs.dev/svgjs">

<path d="M0,0 L16,8 L39,20 L62,33 L87,46 L109,58 L133,71 L134,78 L137,154 L137,166 L131,164 L110,152 L96,145 L75,133 L63,127 L44,116 L28,108 L4,95 L-1,93 L-21,104 L-37,112 L-56,122 L-75,132 L-93,142 L-109,150 L-125,159 L-141,167 L-141,169 L-122,180 L-103,190 L-90,198 L-89,224 L-66,212 L-44,200 L-19,187 L-10,182 L-5,183 L17,195 L45,210 L67,222 L77,228 L74,231 L51,243 L32,253 L18,261 L2,269 L-32,287 L-51,297 L-75,310 L-84,315 L-84,328 L-78,463 L-80,464 L-104,451 L-125,439 L-137,433 L-159,421 L-183,408 L-198,400 L-218,389 L-219,388 L-221,357 L-223,310 L-223,294 L-212,288 L-223,281 L-224,280 L-225,268 L-225,250 L-209,258 L-187,270 L-184,272 L-179,271 L-171,267 L-171,253 L-172,247 L-190,237 L-201,231 L-227,217 L-228,199 L-228,186 L-222,188 L-204,198 L-176,213 L-153,226 L-143,232 L-143,252 L-118,239 L-116,237 L-117,215 L-138,203 L-154,194 L-165,188 L-191,174 L-209,164 L-221,157 L-230,153 L-231,139 L-231,121 L-222,116 L-197,103 L-178,93 L-159,83 L-143,75 L-115,60 L-84,44 L-65,34 L-38,20 L-15,8 Z M-2,31 L-34,48 L-57,60 L-71,68 L-87,76 L-120,93 L-134,101 L-150,109 L-165,117 L-181,125 L-200,135 L-200,138 L-177,151 L-171,152 L-155,144 L-126,129 L-104,117 L-67,98 L-45,86 L-14,70 L-1,63 L5,65 L29,78 L55,92 L77,104 L99,116 L106,120 L108,120 L108,89 L99,83 L88,77 L63,64 L40,51 L19,40 L3,31 Z M-9,212 L-36,226 L-50,234 L-66,242 L-91,255 L-101,261 L-117,269 L-149,286 L-172,298 L-190,308 L-195,310 L-195,334 L-194,359 L-193,371 L-184,377 L-165,387 L-164,387 L-165,359 L-166,328 L-144,316 L-130,309 L-114,300 L-98,292 L-76,280 L-47,265 L-25,253 L0,240 L20,229 L20,227 L-4,214 Z M-113,329 L-137,342 L-139,344 L-139,358 L-137,401 L-128,407 L-110,417 L-108,417 L-108,393 L-110,340 L-111,329 Z" fill="#C88F37" transform="translate(559,288)"/>

</svg>
