<svg version="1.1" xmlns="http://www.w3.org/2000/svg" viewBox="0 0 1024 1024" preserveAspectRatio="xMidYMid meet" xmlns:xlink="http://www.w3.org/1999/xlink" xmlns:svgjs="http://svgjs.dev/svgjs">
<path d="M0,0 L1024,0 L1024,1024 L0,1024 Z " fill="#0B0C1F" transform="translate(0,0)"></path>
<path d="M0,0 L16,8 L39,20 L62,33 L87,46 L109,58 L133,71 L134,78 L137,154 L137,166 L131,164 L110,152 L96,145 L75,133 L63,127 L44,116 L28,108 L4,95 L-1,93 L-21,104 L-37,112 L-56,122 L-75,132 L-93,142 L-109,150 L-125,159 L-141,167 L-141,169 L-122,180 L-103,190 L-90,198 L-89,224 L-66,212 L-44,200 L-19,187 L-10,182 L-5,183 L17,195 L45,210 L67,222 L77,228 L74,231 L51,243 L32,253 L18,261 L2,269 L-32,287 L-51,297 L-75,310 L-84,315 L-84,328 L-78,463 L-80,464 L-104,451 L-125,439 L-137,433 L-159,421 L-183,408 L-198,400 L-218,389 L-219,388 L-221,357 L-223,310 L-223,294 L-212,288 L-223,281 L-224,280 L-225,268 L-225,250 L-209,258 L-187,270 L-184,272 L-179,271 L-171,267 L-171,253 L-172,247 L-190,237 L-201,231 L-227,217 L-228,199 L-228,186 L-222,188 L-204,198 L-176,213 L-153,226 L-143,232 L-143,252 L-118,239 L-116,237 L-117,215 L-138,203 L-154,194 L-165,188 L-191,174 L-209,164 L-221,157 L-230,153 L-231,139 L-231,121 L-222,116 L-197,103 L-178,93 L-159,83 L-143,75 L-115,60 L-84,44 L-65,34 L-38,20 L-15,8 Z " fill="#C88F37" transform="translate(559,288)"></path>
<path d="M0,0 L7,1 L30,14 L44,21 L62,31 L90,46 L106,55 L110,58 L110,89 L105,87 L82,75 L60,63 L36,50 L12,37 L3,32 L-3,34 L-28,47 L-47,57 L-75,72 L-106,88 L-128,100 L-163,118 L-169,121 L-175,120 L-198,107 L-198,104 L-169,89 L-146,77 L-123,65 L-104,55 L-79,42 L-60,32 L-40,21 L-24,13 Z " fill="#0F0D1B" transform="translate(557,319)"></path>
<path d="M0,0 L5,2 L22,11 L29,15 L29,17 L-3,34 L-31,49 L-56,62 L-78,74 L-101,86 L-117,95 L-131,102 L-150,112 L-157,116 L-156,147 L-155,175 L-171,167 L-183,160 L-184,159 L-185,144 L-186,122 L-186,98 L-170,90 L-154,81 L-138,73 L-116,61 L-104,55 L-85,45 L-57,30 L-34,18 L-15,8 Z " fill="#0F0D1B" transform="translate(550,500)"></path>
<path d="M0,0 L2,0 L3,11 L5,64 L5,88 L-1,86 L-22,74 L-24,72 L-26,29 L-26,15 L-17,9 Z " fill="#100D1A" transform="translate(446,617)"></path>

</svg>